<svg width="261" height="51" viewBox="0 0 261 51" fill="none" xmlns="http://www.w3.org/2000/svg">
<rect x="0.5" y="0.5" width="260" height="50" fill="#333333"/>
<path d="M45.9934 32H43.9414L38.5054 25.952V32H36.8314V19.4H38.5054V25.088L43.7614 19.4H45.8134L40.2514 25.52L45.9934 32ZM57.8103 32L56.7843 29.174H51.1143L50.0883 32H48.3063L53.0043 19.4H54.8943L59.5923 32H57.8103ZM51.6903 27.608H56.2083L53.9403 21.398L51.6903 27.608ZM70.0286 19.4V20.984H66.3026V32H64.6466V20.984H60.9386V19.4H70.0286ZM80.8693 32L79.8433 29.174H74.1733L73.1473 32H71.3653L76.0633 19.4H77.9533L82.6513 32H80.8693ZM74.7493 27.608H79.2673L76.9993 21.398L74.7493 27.608ZM84.8924 32V30.488C85.7204 30.608 86.3384 30.38 86.7464 29.804C87.1664 29.216 87.3764 28.13 87.3764 26.546V19.4H95.6924V32H94.0184V20.984H89.0504V26.546C89.0504 27.674 88.9424 28.622 88.7264 29.39C88.5224 30.146 88.2224 30.716 87.8264 31.1C87.4424 31.484 87.0104 31.748 86.5304 31.892C86.0624 32.024 85.5164 32.06 84.8924 32ZM110.677 30.326C109.417 31.598 107.875 32.234 106.051 32.234C104.227 32.234 102.685 31.598 101.425 30.326C100.165 29.054 99.5346 27.512 99.5346 25.7C99.5346 23.876 100.165 22.334 101.425 21.074C102.685 19.802 104.227 19.166 106.051 19.166C107.875 19.166 109.417 19.802 110.677 21.074C111.949 22.334 112.585 23.876 112.585 25.7C112.585 27.512 111.949 29.054 110.677 30.326ZM102.577 29.192C103.513 30.128 104.671 30.596 106.051 30.596C107.431 30.596 108.583 30.128 109.507 29.192C110.443 28.244 110.911 27.08 110.911 25.7C110.911 24.308 110.443 23.144 109.507 22.208C108.583 21.26 107.431 20.786 106.051 20.786C104.671 20.786 103.513 21.26 102.577 22.208C101.653 23.144 101.191 24.308 101.191 25.7C101.191 27.08 101.653 28.244 102.577 29.192ZM123.471 19.4V20.984H118.071V32H116.397V19.4H123.471ZM141.063 32V22.604L134.583 32H133.233V19.4H134.907V28.814L141.387 19.4H142.737V32H141.063ZM153.3 25.484C153.948 25.76 154.452 26.162 154.812 26.69C155.172 27.218 155.352 27.842 155.352 28.562C155.352 29.642 154.944 30.524 154.128 31.208C153.324 31.892 152.256 32.234 150.924 32.234C149.712 32.234 148.734 31.964 147.99 31.424C147.258 30.884 146.742 30.188 146.442 29.336L147.864 28.526C148.236 29.942 149.256 30.65 150.924 30.65C151.8 30.65 152.478 30.458 152.958 30.074C153.438 29.678 153.678 29.156 153.678 28.508C153.678 27.86 153.45 27.338 152.994 26.942C152.55 26.546 151.926 26.348 151.122 26.348H149.646V24.818H150.708C151.476 24.818 152.088 24.632 152.544 24.26C153 23.876 153.228 23.378 153.228 22.766C153.228 22.166 153.012 21.68 152.58 21.308C152.16 20.924 151.572 20.732 150.816 20.732C149.424 20.732 148.494 21.35 148.026 22.586L146.622 21.776C147.378 20.036 148.776 19.166 150.816 19.166C152.028 19.166 153.006 19.502 153.75 20.174C154.506 20.846 154.884 21.698 154.884 22.73C154.884 23.93 154.356 24.848 153.3 25.484ZM168.233 30.416H169.583V34.412H167.909V32H159.593V34.412H157.919V30.416H159.017C159.797 29.444 160.187 27.968 160.187 25.988V19.4H168.233V30.416ZM160.907 30.416H166.559V20.966H161.861V26.024C161.861 27.932 161.543 29.396 160.907 30.416ZM174.989 30.416H180.839V32H173.315V19.4H180.749V20.984H174.989V24.854H180.299V26.42H174.989V30.416ZM183.562 32V30.488C184.39 30.608 185.008 30.38 185.416 29.804C185.836 29.216 186.046 28.13 186.046 26.546V19.4H194.362V32H192.688V20.984H187.72V26.546C187.72 27.674 187.612 28.622 187.396 29.39C187.192 30.146 186.892 30.716 186.496 31.1C186.112 31.484 185.68 31.748 185.2 31.892C184.732 32.024 184.186 32.06 183.562 32ZM206.7 32V22.604L200.22 32H198.87V19.4H200.544V28.814L207.024 19.4H208.374V32H206.7ZM215.191 18.05V16.682H220.051V18.05H215.191ZM220.699 32V22.604L214.219 32H212.869V19.4H214.543V28.814L221.023 19.4H222.373V32H220.699Z" fill="white"/>
<rect x="0.5" y="0.5" width="260" height="50" stroke="white"/>
</svg>
